<svg viewBox="0 0 400 300" xmlns="http://www.w3.org/2000/svg">
  <defs>
    <linearGradient id="azureGradient" x1="0%" y1="0%" x2="100%" y2="100%">
      <stop offset="0%" style="stop-color:#0078d4;stop-opacity:1" />
      <stop offset="100%" style="stop-color:#005a9e;stop-opacity:1" />
    </linearGradient>
    <linearGradient id="serverGradient" x1="0%" y1="0%" x2="100%" y2="100%">
      <stop offset="0%" style="stop-color:#4a5568;stop-opacity:1" />
      <stop offset="100%" style="stop-color:#2d3748;stop-opacity:1" />
    </linearGradient>
    <filter id="shadow" x="-20%" y="-20%" width="140%" height="140%">
      <feDropShadow dx="2" dy="4" stdDeviation="3" flood-opacity="0.2"/>
    </filter>
  </defs>
  
  <!-- Fondo -->
  <rect width="400" height="300" fill="#f7fafc" rx="8"/>
  
  <!-- Nube Azure -->
  <g transform="translate(50, 40)">
    <path d="M80 20 C90 10, 110 10, 120 20 C130 15, 140 25, 135 35 C145 40, 140 55, 125 55 L25 55 C10 55, 5 40, 15 35 C10 25, 20 15, 30 20 C35 10, 55 10, 65 15 Z" 
          fill="url(#azureGradient)" filter="url(#shadow)"/>
    <text x="80" y="40" text-anchor="middle" fill="white" font-family="Arial, sans-serif" font-size="12" font-weight="bold">AZURE</text>
  </g>
  
  <!-- Servidor VPS -->
  <g transform="translate(160, 120)">
    <rect width="80" height="60" rx="4" fill="url(#serverGradient)" filter="url(#shadow)"/>
    <!-- Luces del servidor -->
    <circle cx="15" cy="15" r="3" fill="#10b981"/>
    <circle cx="25" cy="15" r="3" fill="#f59e0b"/>
    <circle cx="35" cy="15" r="3" fill="#ef4444"/>
    <!-- Rejillas de ventilación -->
    <g stroke="#718096" stroke-width="1" opacity="0.6">
      <line x1="10" y1="35" x2="70" y2="35"/>
      <line x1="10" y1="40" x2="70" y2="40"/>
      <line x1="10" y1="45" x2="70" y2="45"/>
    </g>
    <text x="40" y="55" text-anchor="middle" fill="white" font-family="Arial, sans-serif" font-size="8" font-weight="bold">VPS</text>
  </g>
  
  <!-- Escudo VPN -->
  <g transform="translate(300, 100)">
    <path d="M25 10 L35 15 L35 35 C35 45, 25 50, 25 50 C25 50, 15 45, 15 35 L15 15 Z" 
          fill="#10b981" filter="url(#shadow)"/>
    <path d="M25 18 L30 23 L25 28 L20 23 Z" fill="white"/>
    <text x="25" y="65" text-anchor="middle" fill="#374151" font-family="Arial, sans-serif" font-size="10" font-weight="bold">VPN</text>
  </g>
  
  <!-- Conexiones -->
  <g stroke="#0078d4" stroke-width="2" fill="none" stroke-dasharray="5,5">
    <!-- Azure a VPS -->
    <path d="M150 75 Q180 90, 180 120" opacity="0.8">
      <animate attributeName="stroke-dashoffset" values="0;10" dur="1s" repeatCount="indefinite"/>
    </path>
    <!-- VPS a VPN -->
    <path d="M240 150 Q270 130, 300 130" opacity="0.8">
      <animate attributeName="stroke-dashoffset" values="0;10" dur="1s" repeatCount="indefinite"/>
    </path>
  </g>
  
  <!-- Usuario -->
  <g transform="translate(50, 200)">
    <circle cx="20" cy="20" r="15" fill="#6b7280" filter="url(#shadow)"/>
    <circle cx="20" cy="15" r="6" fill="#e5e7eb"/>
    <path d="M10 25 Q20 20, 30 25 L30 35 L10 35 Z" fill="#e5e7eb"/>
    <text x="20" y="50" text-anchor="middle" fill="#374151" font-family="Arial, sans-serif" font-size="10">User</text>
  </g>
  
  <!-- Conexión usuario a Azure -->
  <g stroke="#10b981" stroke-width="2" fill="none" stroke-dasharray="3,3">
    <path d="M80 220 Q115 180, 130 100" opacity="0.8">
      <animate attributeName="stroke-dashoffset" values="0;6" dur="0.8s" repeatCount="indefinite"/>
    </path>
  </g>
  
  <!-- Etiqueta "GRATIS" -->
  <g transform="translate(320, 200)">
    <rect width="60" height="20" rx="10" fill="#10b981" filter="url(#shadow)"/>
    <text x="30" y="14" text-anchor="middle" fill="white" font-family="Arial, sans-serif" font-size="10" font-weight="bold">Free</text>
  </g>
  
  <!-- Título -->
  <text x="200" y="25" text-anchor="middle" fill="#1f2937" font-family="Arial, sans-serif" font-size="16" font-weight="bold">Azure VPS + VPN Free</text>
</svg>